# xmcd
# 
# Track frame offsets:
#     150
#     14713
#     30517
#     43615
#     55146
#     67012
#     76646
#     91398
#     102882
#     118202
#     136605
#     149813
#     163678
#     175209
#     187743
#     204902
#     220888
# 
# Disc length: 3121
# 
# Revision: 2
# Processed by: cddbd v1.5.2PL0 Copyright (c) Steve Scherf et al.
# Submitted via: BonkEnc v1.0.8
# 
DISCID=e90c2f11
DTITLE=Various Artist - Rhinestone Cowboy - Country Crossovers
DYEAR=2008
DGENRE=Country
TTITLE0=Glen Campbell - Rhinestone Cowboy
TTITLE1=Kenny Rogers - The Gambler
TTITLE2=Dolly Parton - Here You Come Again
TTITLE3=Willie Nelson - On The Road Again
TTITLE4=Johnny Paycheck - Take This Job And Shove It
TTITLE5=Waylon Jennings - Theme From The Dukes Of Hazzard (Good Ol' Boys)
TTITLE6=Ronnie Milsap - (There's) No Gettin' Over Me
TTITLE7=Crystal Gayle - Don't It Make My Brown Eyes Blue
TTITLE8=B.J. Thomas - (Hey, Won't You Play) Another Somebody Done Somebody Wrong Song
TTITLE9=Don Williams - I Believe In You
TTITLE10=Charlie Rich - Behind Closed Doors
TTITLE11=Mac Davis - Baby Don't Get Hooked On Me
TTITLE12=Waylon Jennings and Willie Nelson - Mammas, Don't Let Your Babies Grow Up To Be Cowboys
TTITLE13=Jerry Reed - East Bound And Down
TTITLE14=Rick Nelson - Garden Party
TTITLE15=Willie Nelson - Always On My Mind
TTITLE16=Dolly Parton - I Will Always Love You
EXTD=Mix Your Style
EXTT0=
EXTT1=
EXTT2=
EXTT3=
EXTT4=
EXTT5=
EXTT6=
EXTT7=
EXTT8=
EXTT9=
EXTT10=
EXTT11=
EXTT12=
EXTT13=
EXTT14=
EXTT15=
EXTT16=
PLAYORDER=
